<?xml version="1.0" standalone="no"?>
<!DOCTYPE svg PUBLIC "-//W3C//DTD SVG 20010904//EN"
 "http://www.w3.org/TR/2001/REC-SVG-20010904/DTD/svg10.dtd">
<svg version="1.0" xmlns="http://www.w3.org/2000/svg"
 width="512.000000pt" height="512.000000pt" viewBox="0 0 512.000000 512.000000"
 preserveAspectRatio="xMidYMid meet">
<metadata>
Created by potrace 1.16, written by Peter Selinger 2001-2019
</metadata>
<g transform="translate(0.000000,512.000000) scale(0.100000,-0.100000)"
fill="#000000" stroke="none">
<path d="M240 3165 l0 -1615 -120 0 -120 0 0 -418 0 -417 188 -188 187 -187
2185 0 2185 0 188 188 187 187 0 418 0 417 -120 0 -120 0 0 1615 0 1615 -2320
0 -2320 0 0 -1615z m4330 -155 l0 -1460 -800 0 -800 0 0 -150 0 -150 -410 0
-410 0 0 150 0 150 -795 0 -795 0 0 1460 0 1460 2005 0 2005 0 0 -1460z
m-2730 -1920 l0 -150 720 0 720 0 0 150 0 150 765 0 765 0 0 -192 0 -193 -102
-102 -103 -103 -2045 0 -2045 0 -102 102 -103 103 0 192 0 193 765 0 765 0 0
-150z"/>
<path d="M1668 3850 c-148 -25 -286 -97 -399 -210 -136 -135 -207 -279 -228
-463 -33 -292 97 -567 347 -733 109 -73 287 -124 433 -124 l49 0 0 154 0 153
-78 6 c-182 14 -321 107 -400 266 -36 74 -37 77 -37 190 1 139 19 194 92 286
88 107 198 163 341 172 l82 6 0 153 0 154 -77 -1 c-43 -1 -99 -5 -125 -9z"/>
<path d="M2400 3365 l0 -135 -130 0 -130 0 0 -155 0 -155 130 0 130 0 0 -130
0 -130 160 0 160 0 0 130 0 130 130 0 130 0 0 155 0 155 -130 0 -130 0 0 135
0 135 -160 0 -160 0 0 -135z"/>
<path d="M3540 3365 l0 -135 -135 0 -135 0 0 -155 0 -155 135 0 135 0 0 -130
0 -130 155 0 155 0 0 130 0 130 130 0 130 0 0 155 0 155 -130 0 -130 0 0 135
0 135 -155 0 -155 0 0 -135z"/>
</g>
</svg>
