<?xml version="1.0" standalone="no"?>
<!DOCTYPE svg PUBLIC "-//W3C//DTD SVG 20010904//EN"
 "http://www.w3.org/TR/2001/REC-SVG-20010904/DTD/svg10.dtd">
<svg version="1.0" xmlns="http://www.w3.org/2000/svg"
 width="512.000000pt" height="512.000000pt" viewBox="0 0 512.000000 512.000000"
 preserveAspectRatio="xMidYMid meet">
<metadata>
Created by potrace 1.16, written by Peter Selinger 2001-2019
</metadata>
<g transform="translate(0.000000,512.000000) scale(0.100000,-0.100000)"
fill="#000000" stroke="none">
<path d="M1095 5102 c-86 -42 -135 -122 -135 -219 1 -98 56 -181 144 -218 43
-18 145 -22 174 -6 16 9 55 -27 284 -257 214 -215 266 -274 272 -301 3 -18 6
-85 6 -147 l0 -114 -115 0 c-124 0 -175 -13 -194 -48 -16 -30 -13 -67 7 -91
l17 -22 968 1 c923 0 970 0 1010 -18 54 -24 105 -75 129 -129 18 -40 18 -87
18 -1010 l-1 -968 22 -17 c32 -27 81 -23 110 8 22 24 24 34 27 160 l4 134 328
0 328 0 12 -30 c17 -42 90 -104 138 -118 93 -28 197 1 259 71 42 48 56 96 51
175 -3 54 -9 76 -33 112 -98 145 -306 144 -400 -2 l-30 -47 -327 0 -328 -1 0
80 0 80 174 0 c160 0 175 2 200 21 37 29 37 89 0 118 -25 19 -40 21 -200 21
l-174 0 0 80 0 80 614 0 c605 0 614 0 640 21 37 29 37 89 0 118 -26 21 -35 21
-640 21 l-614 0 0 80 0 80 174 0 c160 0 175 2 200 21 20 16 26 29 26 59 0 30
-6 43 -26 59 -25 19 -40 21 -200 21 l-174 0 0 80 0 80 120 0 c123 0 203 12
255 37 17 9 150 134 296 280 l266 265 55 -11 c102 -21 193 14 250 97 27 39 33
59 36 114 5 82 -10 129 -57 181 -48 53 -101 77 -176 77 -100 0 -183 -55 -220
-145 -19 -44 -22 -142 -6 -172 9 -18 -21 -51 -257 -285 -215 -214 -274 -266
-301 -272 -18 -3 -85 -6 -147 -6 l-114 0 0 113 c0 162 -29 242 -117 330 -88
88 -168 117 -330 117 l-113 0 0 329 0 329 30 12 c42 17 104 90 118 138 28 93
-1 197 -71 259 -48 42 -96 56 -175 51 -54 -3 -76 -9 -112 -33 -145 -98 -144
-306 2 -400 l47 -30 0 -327 1 -328 -80 0 -80 0 0 174 c0 160 -2 175 -21 200
-29 37 -89 37 -118 0 -19 -25 -21 -40 -21 -200 l0 -174 -80 0 -80 0 0 614 c0
605 0 614 -21 640 -16 20 -29 26 -59 26 -30 0 -43 -6 -59 -26 -21 -26 -21 -35
-21 -640 l0 -614 -80 0 -80 0 0 174 c0 160 -2 175 -21 200 -29 37 -89 37 -118
0 -19 -25 -21 -40 -21 -200 l0 -174 -80 0 -80 0 0 120 c0 123 -12 203 -37 255
-9 17 -134 150 -280 296 l-265 266 12 56 c22 98 -14 192 -98 249 -39 27 -56
32 -121 35 -60 3 -85 0 -116 -15z m145 -152 c10 -5 23 -24 29 -41 27 -76 -66
-134 -126 -77 -65 61 17 161 97 118z m2015 -175 c30 -30 32 -64 4 -99 -36 -46
-119 -28 -133 29 -7 27 15 80 36 88 32 13 70 6 93 -18z m1682 -797 c42 -39 27
-108 -28 -127 -76 -27 -134 66 -77 126 28 30 74 30 105 1z m-178 -1993 c48
-24 56 -81 16 -120 -30 -30 -64 -32 -99 -4 -42 33 -32 109 17 129 31 12 34 12
66 -5z"/>
<path d="M1327 3589 c-35 -20 -47 -72 -47 -194 l0 -115 -329 0 -329 0 -12 30
c-17 42 -90 104 -138 118 -93 28 -197 -1 -259 -71 -42 -48 -56 -96 -51 -175 3
-54 9 -76 33 -112 98 -145 306 -144 400 2 l30 47 328 0 327 1 0 -80 0 -80
-174 0 c-160 0 -175 -2 -200 -21 -37 -29 -37 -89 0 -118 25 -19 40 -21 200
-21 l174 0 0 -80 0 -80 -614 0 c-605 0 -614 0 -640 -21 -37 -29 -37 -89 0
-118 26 -21 35 -21 640 -21 l614 0 0 -80 0 -80 -174 0 c-160 0 -175 -2 -200
-21 -37 -29 -37 -89 0 -118 25 -19 40 -21 200 -21 l174 0 0 -80 0 -80 -120 0
c-123 0 -203 -12 -255 -37 -16 -9 -150 -134 -296 -280 l-266 -265 -55 11
c-102 21 -193 -14 -250 -97 -27 -39 -33 -59 -36 -114 -5 -82 10 -129 57 -181
48 -53 101 -77 176 -77 100 0 183 55 220 145 19 44 22 142 6 172 -9 18 21 51
257 285 215 214 274 266 301 272 18 3 85 6 147 6 l114 0 0 -112 c0 -163 29
-243 117 -331 88 -88 168 -117 331 -117 l112 0 0 -329 0 -329 -30 -12 c-42
-17 -104 -90 -118 -138 -28 -93 1 -197 71 -259 48 -42 96 -56 175 -51 54 3 76
9 112 33 145 98 144 306 -2 400 l-47 30 0 328 -1 327 80 0 80 0 0 -174 c0
-160 2 -175 21 -200 29 -37 89 -37 118 0 19 25 21 40 21 200 l0 174 80 0 80 0
0 -614 c0 -605 0 -614 21 -640 29 -37 89 -37 118 0 21 26 21 35 21 640 l0 614
80 0 80 0 0 -174 c0 -160 2 -175 21 -200 29 -37 89 -37 118 0 19 25 21 40 21
200 l0 174 80 0 80 0 0 -120 c0 -123 12 -203 37 -255 9 -16 134 -150 280 -296
l265 -266 -12 -56 c-22 -98 14 -192 97 -249 37 -25 59 -32 113 -36 83 -6 130
9 183 57 53 48 77 101 77 176 0 162 -130 260 -305 231 l-40 -7 -261 263 c-210
212 -262 270 -268 297 -3 18 -6 85 -6 147 l0 114 115 0 c124 0 175 13 194 48
16 30 13 67 -7 91 l-17 22 -968 -1 c-923 0 -970 0 -1010 18 -54 24 -105 75
-129 129 -18 40 -18 87 -18 1010 l1 968 -22 18 c-24 19 -65 22 -92 6z m-883
-330 c46 -36 28 -119 -29 -133 -29 -7 -79 15 -89 39 -12 33 -5 66 19 90 30 30
64 32 99 4z m-175 -1994 c70 -36 45 -145 -33 -145 -82 0 -107 113 -32 146 39
17 32 17 65 -1z m1698 -810 c29 -20 37 -59 19 -94 -17 -32 -34 -41 -76 -41
-33 0 -70 40 -70 75 0 12 9 34 21 49 24 30 71 35 106 11z m2010 -167 c65 -61
-17 -161 -97 -118 -29 16 -42 67 -25 100 8 16 20 30 27 33 31 13 73 6 95 -15z"/>
<path d="M2232 3425 c-123 -38 -209 -156 -200 -275 3 -48 3 -48 -32 -59 -54
-16 -127 -68 -165 -118 -84 -110 -98 -245 -37 -363 l32 -63 -33 -66 c-29 -60
-32 -74 -32 -161 0 -88 3 -101 33 -162 21 -43 51 -84 87 -116 32 -30 55 -59
55 -71 0 -41 44 -136 83 -178 22 -24 69 -57 106 -76 59 -29 74 -32 156 -32
103 0 161 18 231 71 l44 34 44 -34 c70 -53 128 -71 231 -71 76 0 99 4 146 26
100 47 175 136 194 229 5 26 20 45 58 75 138 108 166 322 62 459 l-35 46 35
45 c133 174 53 432 -159 519 l-51 21 0 65 c-1 77 -22 127 -78 183 -99 99 -277
116 -395 36 -23 -16 -47 -29 -52 -29 -5 0 -28 13 -52 29 -76 51 -184 65 -276
36z m178 -165 c41 -21 70 -63 70 -100 0 -33 16 -56 50 -70 53 -22 110 14 110
70 0 60 72 120 145 120 76 0 145 -60 145 -125 0 -28 -12 -35 -93 -56 -76 -19
-107 -75 -71 -127 25 -37 56 -43 116 -25 145 43 298 -37 315 -165 10 -72 -17
-119 -114 -198 -27 -21 -33 -33 -33 -64 0 -31 6 -43 33 -64 96 -79 124 -126
114 -197 -3 -21 -15 -55 -27 -75 l-23 -36 -44 51 c-48 55 -131 102 -184 103
-38 1 -79 -38 -79 -76 0 -33 33 -71 79 -89 67 -27 113 -108 97 -171 -9 -37
-56 -87 -101 -107 -100 -46 -229 0 -264 94 -7 17 -11 129 -11 290 0 230 2 266
18 297 25 50 86 89 152 97 94 11 132 82 74 140 -24 24 -30 25 -90 20 -36 -4
-85 -15 -109 -26 l-45 -20 0 54 c0 42 -5 60 -23 81 -33 37 -81 37 -114 0 -23
-27 -23 -31 -23 -241 l0 -214 -36 15 c-54 23 -91 21 -119 -6 -49 -46 -27 -101
60 -148 74 -40 95 -87 95 -213 0 -54 -5 -110 -11 -126 -44 -117 -221 -150
-317 -60 -54 50 -65 108 -33 167 56 101 55 97 42 128 -13 30 -47 52 -82 52
-12 0 -37 -16 -56 -35 -41 -41 -50 -38 -82 29 -58 118 7 245 155 305 50 20 73
35 82 55 27 54 -10 116 -68 116 -14 0 -52 -12 -85 -25 -33 -14 -64 -25 -68
-25 -17 0 -39 75 -34 117 10 94 92 166 205 181 36 5 70 16 82 27 26 24 26 80
0 120 -70 106 75 219 200 155z"/>
</g>
</svg>
