<?xml version="1.0" standalone="no"?>
<!DOCTYPE svg PUBLIC "-//W3C//DTD SVG 20010904//EN"
 "http://www.w3.org/TR/2001/REC-SVG-20010904/DTD/svg10.dtd">
<svg version="1.0" xmlns="http://www.w3.org/2000/svg"
 width="512.000000pt" height="512.000000pt" viewBox="0 0 512.000000 512.000000"
 preserveAspectRatio="xMidYMid meet">
<metadata>
Created by potrace 1.16, written by Peter Selinger 2001-2019
</metadata>
<g transform="translate(0.000000,512.000000) scale(0.100000,-0.100000)"
fill="#000000" stroke="none">
<path d="M238 5096 c-110 -45 -185 -127 -220 -238 -17 -57 -18 -132 -18 -1662
0 -1434 2 -1608 16 -1657 33 -114 119 -207 229 -248 54 -20 74 -21 601 -21
l544 0 -5 -22 c-3 -13 -36 -147 -73 -298 l-67 -275 -162 -5 c-179 -6 -193 -10
-241 -80 -18 -28 -22 -46 -22 -115 0 -90 16 -127 73 -169 28 -21 36 -21 701
-24 l673 -3 5 -42 c7 -57 35 -114 78 -157 53 -53 103 -74 193 -78 71 -4 84 -1
141 27 65 32 76 43 185 194 l42 57 501 0 c487 0 503 1 544 21 66 32 89 76 89
174 0 98 -23 142 -89 174 -37 18 -61 21 -189 21 l-146 0 -10 38 c-6 20 -11 40
-11 45 0 4 123 7 273 7 l272 -1 220 -310 c121 -171 238 -331 260 -356 56 -65
121 -93 215 -93 117 1 206 53 256 151 22 45 24 59 24 196 -1 241 -48 1121 -63
1178 -30 107 -81 196 -156 271 l-41 41 -2 1504 -3 1504 -27 57 c-35 76 -95
138 -170 179 l-63 34 -2150 2 -2150 3 -57 -24z m4312 -67 c62 -14 135 -63 170
-114 63 -91 60 -19 60 -1591 l0 -1433 -62 28 c-119 53 -100 52 -1027 52 -963
0 -905 4 -1046 -69 -99 -51 -209 -163 -257 -262 -39 -82 -53 -132 -64 -228
l-7 -62 -1006 2 -1006 3 -50 27 c-64 33 -127 101 -149 159 -15 41 -16 167 -14
1669 3 1545 4 1627 21 1658 43 79 124 143 202 163 49 12 4183 10 4235 -2z
m-1479 -3152 c89 -27 164 -72 229 -137 79 -79 124 -164 147 -277 72 -344 -242
-669 -594 -615 -195 31 -366 176 -423 359 -27 88 -27 227 0 315 51 165 198
306 367 353 63 17 219 18 274 2z m1524 -2 c130 -34 257 -131 323 -247 39 -68
72 -191 72 -267 0 -234 -178 -451 -416 -507 -132 -31 -285 -1 -407 80 -230
153 -299 482 -149 712 103 158 253 242 432 243 47 1 112 -6 145 -14z m-767
-507 c7 -7 12 -35 12 -63 0 -28 -5 -56 -12 -63 -17 -17 -249 -17 -266 0 -16
16 -16 110 0 126 8 8 52 12 133 12 81 0 125 -4 133 -12z m-1508 -105 c0 -5 -7
-136 -15 -293 -8 -157 -15 -291 -15 -297 0 -10 -101 -13 -473 -13 -261 0 -476
2 -479 5 -3 3 26 130 63 283 38 152 71 287 74 300 l5 22 420 0 c231 0 420 -3
420 -7z m1199 -547 c6 -25 11 -47 11 -50 0 -3 -79 -6 -175 -6 -96 0 -175 3
-175 6 0 3 14 25 30 50 l31 44 133 0 134 0 11 -44z m-1233 -167 c-3 -17 -6
-65 -6 -105 l0 -74 -665 0 -666 0 -24 25 c-21 20 -25 34 -25 80 0 46 4 60 25
80 l24 25 672 0 672 0 -7 -31z m1653 5 c32 -40 29 -126 -4 -159 l-24 -25 -471
0 c-258 0 -470 3 -470 6 0 3 32 50 71 105 l71 99 403 0 404 0 20 -26z"/>
<path d="M367 4856 c-47 -17 -71 -38 -91 -81 -14 -29 -16 -161 -16 -1208 l0
-1174 23 -34 c12 -18 38 -44 56 -56 l34 -23 2054 0 c2302 0 2098 -7 2151 73
l27 41 0 1175 c0 1281 3 1203 -53 1254 -53 48 32 46 -2122 46 -1683 0 -2031
-2 -2063 -13z m4113 -81 c20 -10 33 -28 40 -53 8 -26 10 -378 8 -1174 l-3
-1136 -24 -26 -24 -26 -2044 0 -2044 0 -24 25 -25 24 0 1165 0 1164 31 26 31
26 2024 0 c1784 0 2028 -2 2054 -15z"/>
</g>
</svg>
