<?xml version="1.0" standalone="no"?>
<!DOCTYPE svg PUBLIC "-//W3C//DTD SVG 20010904//EN"
 "http://www.w3.org/TR/2001/REC-SVG-20010904/DTD/svg10.dtd">
<svg version="1.0" xmlns="http://www.w3.org/2000/svg"
 width="512.000000pt" height="512.000000pt" viewBox="0 0 512.000000 512.000000"
 preserveAspectRatio="xMidYMid meet">
<metadata>
Created by potrace 1.11, written by Peter Selinger 2001-2013
</metadata>
<g transform="translate(0.000000,512.000000) scale(0.100000,-0.100000)"
fill="#000000" stroke="none">
<path d="M2379 5116 c-2 -2 -40 -6 -83 -10 -44 -4 -82 -9 -85 -11 -4 -2 -34
-7 -66 -10 -109 -13 -387 -87 -490 -130 -16 -7 -55 -23 -85 -35 -94 -38 -261
-124 -360 -185 -670 -415 -1114 -1125 -1197 -1915 -10 -86 -10 -416 -1 -510
22 -234 98 -530 193 -755 28 -66 132 -272 153 -302 10 -15 39 -59 63 -98 180
-286 479 -577 789 -770 280 -173 634 -305 937 -351 21 -3 49 -7 63 -10 101
-19 470 -26 605 -11 591 63 1133 319 1548 730 53 52 87 90 173 189 237 274
468 757 529 1107 3 19 8 37 10 40 5 10 19 102 32 226 10 91 10 409 1 505 -47
469 -224 922 -507 1295 -25 33 -50 65 -56 71 -5 6 -30 35 -55 65 -238 283
-590 533 -985 699 -145 61 -419 133 -595 156 -25 3 -56 8 -70 10 -29 6 -456
15 -461 10z"/>
</g>
</svg>
